<?xml version="1.0" encoding="UTF-8"?>
<svg xmlns="http://www.w3.org/2000/svg" version="1.1" viewBox="0 0 1476.4 859.6">
  <defs>
    <style>
      .cls-1 {
        fill: #c9feff;
      }

      .cls-2 {
        fill: #fff;
      }
    </style>
  </defs>
  <!-- Generator: Adobe Illustrator 28.6.0, SVG Export Plug-In . SVG Version: 1.2.0 Build 709)  -->
  <g>
    <g id="Calque_1">
      <path d="M1467.3,449.4c.3-15.6-16.2-29.2-31.5-25.9,23.7-11.4,21.6-53-3.2-61.9,11-.6,20.8-10,22-20.9s-6.4-22.2-17-25.2c16.6-1.6,30.4-17.8,29.4-34.5-1.1-16.7-16.8-31-33.5-30.5,23.7-4.7,34-39.9,16.6-56.7,14.6-4,25.1-19.4,23.6-34.4-1.5-15-14.8-28-29.9-29.1,13.5,1.2,26.8-10.4,27.4-24s-11.5-26.4-25.1-26.4c14.9-1.1,23.7-20.3,17.4-33.9-6.3-13.5-23-19.9-37.8-17.7s-27.6,11.4-38.1,22c-4.4-15.1-19.5-26.3-35.2-26.2-15.7.1-30.6,11.7-34.7,26.8-5.1-15.5-21.2-26.7-37.5-26.2s-31.7,12.6-35.9,28.5c3.1-14.9-8.4-31.2-23.5-33.2-15.1-2.1-30.5,10.5-31.6,25.7-6.4-14.3-22.7-23.5-38.2-21.7s-29,14.3-32,29.7c-2.4-17.2-18-31.7-35.4-32.7-17.4-1.1-34.7,11.3-39.2,28.1-.8-15.7-14.5-29.8-30.2-31s-31.4,10.5-34.8,25.9c0-17.9-16.6-34.1-34.5-33.8-16.1.3-30.6,14-32.9,29.7-.6-16.5-15.1-32-31.8-32.4-18.5-.5-35.3,17.5-33.5,36-1-16.9-16.5-31.5-33.4-31.6s-32.5,14.4-33.7,31.3c-3.4-16.2-19.8-28.5-36.3-27.3-14.5,1-27.4,12.4-31,26.3.9-15.9-12.1-32.2-28.3-33.4-17.4-1.4-33.8,15-33.3,32.2-1.9-18.3-19.8-33.7-38.3-32.3-16.2,1.2-30.1,15.2-32.6,31.1-2-15.2-15.6-28.9-31.2-29.3-18.6-.5-35.4,17.9-33.1,36.4-5.2-20.5-21.6-39.6-42.6-41.4-16.3-1.4-32.9,11.6-36,26.7-3.9-11.7-14.8-21.2-27.2-21.6-16.9-.5-32.2,16.3-30.1,33.1-3.8-14.8-18.9-25.8-34.2-25-13.5.8-25.7,10.7-29.9,23.4,1.8-14.7-9.1-30.5-24-32.7-16.7-2.5-33.6,12.8-32.8,29.7-4.2-21-24.9-37.3-46.2-36.6s-40.9,18.5-43.7,39.7c.5-20.5-22.1-37.9-41.7-32.3-17.4,5-27.1,26.5-21.3,43.2-11.8-18.6-41.4-24.5-58.5-9.8-18.6,16.1-15.2,50.5,6,62.8-13.7-.5-26.9,10.8-28.2,24.5-1.4,14.2,10.4,28.3,24.6,29.6-17.6-2-35.1,13.3-35.5,31-.3,15.9,13.2,30.4,28.8,32.3-14.3,1-27.6,13.1-28.8,27.6-1.4,16.3,12.6,32.2,29,32.9-16.3-1.1-31.9,13.3-32.1,29.6-.1,13.8,10.8,26.5,24,29.6-13.5.9-26.3,12.8-26.3,26.6-.1,15.6,16.1,28.9,31.3,26.5-15,3.5-26.4,19.1-24.7,34.5,1.6,14.8,15,27.2,29.8,28.3-14.8.9-28.4,13.4-29.8,28.2-1.3,13.8,8.1,27.6,20.9,32.4-15.9-1.6-32.9,11.4-33.7,27.8-.7,14.9,12.2,28.3,26.6,30.5-10.3,3.2-18.7,13-18.7,23.9.1,14.2,14.4,26.4,28.4,24.7-11.9,2.4-21.5,14.1-21,26.4.5,11.3,9.3,21.4,20.2,24.1-15.7-.7-31.5,11.9-33.3,27.7-1.9,17.4,13.7,34.6,31.2,34.5-15.2-.7-28.3,16.6-23.5,31,4.5,13.5,23,19.6,35,12.4-17.6,13.8-16.3,46.3,3.5,57.7,20.6,11.9,51.2-5.1,52-28.9-.5,15.7,13.4,30.5,29.2,30.9,15.8.4,30.4-13.7,30.6-29.5-.9,15.6,13.2,30.4,28.8,30.2,15.6,0,29.4-15.1,28.3-30.7.6,15.8,14.4,30,30.2,31,15.8,1,31.3-11.3,33.9-26.9,2,11,12.9,19.7,24.1,19.1,11.2-.6,21.1-10.4,21.9-21.6-.9,16.6,13.8,32.4,30.4,32.7s31.9-15,31.5-31.6c1.1,13.8,12.6,26.1,26.3,28s28.2-6.8,32.9-19.7c-.1,13.5,11.7,26.1,25.3,26.6,13.5.6,26.4-10.9,27.4-24.4,3.3,17.4,19.9,31.3,37.6,31.5s34.6-13.3,38.3-30.6c3.2,14.2,18,24.8,32.5,23.2s26.6-15.3,26.6-29.8c14.9,25.6,59.3,24.3,72.7-2.1,3.3,17.6,20,31.7,38,32.1,17.9.4,35.2-13.1,39.2-30.6,2.6,12.8,15.4,22.8,28.5,22.1s24.8-11.8,26.2-24.8c10,27,57.1,25.8,65.8-1.7,2.7,15.9,17.5,28.9,33.6,29.6s31.9-11.2,35.8-26.9c3,16.2,18.8,29,35.3,28.6s31.6-13.9,33.9-30.2c3.7,13.3,17.2,23.2,31,22.6,13.8-.6,26.5-11.6,29-25.1,3.3,14.5,16.9,25.9,31.8,26.8,14.8.9,29.6-9,34.6-23,3.5,14.9,19.5,25.8,34.6,23.4,15.2-2.3,27.1-17.5,25.9-32.8,3.5,15,17.4,27,32.7,28.2,15.3,1.3,31-8.2,36.9-22.4,1.5,15.5,16.4,28.4,31.9,27.8,13.9-.6,26.3-11.9,29-25.4,0,12.6,10.3,24.8,23,26,14.4,1.3,28.3-11.9,27.8-26.3,11.1,13.9,36,12.8,45.8-2,9.9-14.8,1.3-38.2-15.9-43.1,13.2-4.6,21.9-19.7,19.3-33.4-2.5-13.3-15.3-23.9-28.8-24.1,13.1-.5,25.1-12,25.7-25.2.7-13.6-10.8-26.7-24.4-27.8,13.8-3.4,24.4-16.9,24.4-31.1,0-14.2-10.4-27.8-24.1-31.3,15-2.2,27.1-16.8,26.5-31.9s-13.7-28.8-28.8-29.9c16.2-1.1,30-16.5,29.4-32.7-.5-13-10.4-24.8-22.7-28.7,12.8-1,24.7-12.2,24.9-25.2Z"/>
      <path class="cls-1" d="M1433.2,473.3c16.2-.3,31.3,13.9,32,30.1.7,16.2-13.2,31.6-29.4,32.7,15.1,1.2,28.2,14.8,28.8,29.9.6,15.1-11.5,29.7-26.5,31.9,13.7,3.6,24.2,17.1,24.1,31.3s-10.7,27.7-24.4,31.1c13.6,1.1,25.1,14.1,24.4,27.8-.7,13.6-13.4,25.5-27.1,25.2,14-.5,27.6,10.3,30.1,24.1,2.6,13.8-6.1,28.8-19.3,33.4,17.1,4.9,25.7,28.2,15.9,43.1-9.9,14.8-34.7,15.9-45.8,2,.5,14.4-13.4,27.6-27.8,26.3s-25.6-16.8-22.5-30.9c-.2,15.5-14,29.7-29.5,30.3s-30.4-12.3-31.9-27.8c-5.9,14.2-21.6,23.7-36.9,22.4s-29.2-13.3-32.7-28.2c1.2,15.3-10.8,30.5-25.9,32.8s-31.2-8.5-34.6-23.4c-5,14-19.8,23.8-34.6,23s-28.4-12.3-31.8-26.8c-2.5,13.6-15.2,24.6-29,25.1-13.8.6-27.3-9.3-31-22.6-2.2,16.3-17.4,29.8-33.9,30.2s-32.2-12.4-35.3-28.6c-3.9,15.7-19.6,27.5-35.8,26.9s-30.9-13.6-33.6-29.6c-8.7,27.4-55.8,28.6-65.8,1.7-1.3,13-13.1,24.2-26.2,24.8-13.1.6-25.9-9.3-28.5-22.1-4,17.5-21.3,30.9-39.2,30.6s-34.6-14.5-38-32.1c-13.4,26.4-57.8,27.7-72.7,2.1,0,14.6-12.1,28.2-26.6,29.8s-29.4-9-32.5-23.2c-3.7,17.3-20.6,30.8-38.3,30.6s-34.3-14.1-37.6-31.5c-1,13.5-13.9,25-27.4,24.4s-25.4-13.1-25.3-26.6c-4.8,13-19.2,21.7-32.9,19.7-13.7-1.9-25.2-14.2-26.3-28,.3,16.6-14.9,31.9-31.5,31.6-16.6-.3-31.3-16.1-30.4-32.7-.8,11.2-10.7,21-21.9,21.6-11.2.6-22.2-8-24.1-19.1-2.6,15.6-18.2,27.9-33.9,26.9-15.8-1-29.6-15.2-30.2-31,1.1,15.6-12.7,30.6-28.3,30.7s-29.7-14.6-28.8-30.2c-.2,15.8-14.9,29.8-30.6,29.5-15.8-.4-29.7-15.2-29.2-30.9-.8,23.8-31.4,40.8-52,28.9-20.7-12-21.2-47-1-59.5-11.7,9.7-32.6,3.8-37.4-10.7-4.8-14.5,8.2-31.8,23.5-31-17.5.2-33.1-17-31.2-34.5s20.9-30.9,37.9-26.9c-12.9-.4-24.4-11.9-24.9-24.8-.5-12.9,10.1-25.2,22.8-26.7-14.5,3.1-30.2-9.6-30.3-24.4s15.5-27.6,30.1-24.6c-18.1,5.3-38.9-11-38-29.8.9-18.8,23.2-33.1,40.7-26.1-16.2-1.7-29.4-17.9-27.8-34.1s17.6-29.6,33.8-28.2c-16.2,1.1-32-12.2-33.8-28.4s10.8-32.5,26.9-35c-15.8,4-33.5-9.8-33.5-26.1s17.9-30,33.7-25.9c-16.3.8-31.6-14-31.5-30.3.2-16.3,15.8-30.8,32.1-29.6-16.3-.7-30.4-16.6-29-32.9s18-29.6,34.2-27.4c-17.6,1.3-34.5-14.8-34.1-32.5s17.9-33,35.5-31c-14.2-1.3-25.9-15.4-24.6-29.6,1.4-14.2,15.6-25.9,29.8-24.4l-.6.4c-22-11.8-25.8-47-6.9-63.3,18.9-16.3,53.2-7.3,61.6,16.1-11.3-17-1.5-43.9,18.2-49.5s42.3,11.8,41.7,32.3c2.8-21.2,22.3-38.9,43.6-39.6s42,15.6,46.2,36.6c-.8-16.8,16.2-32.1,32.8-29.7,16.7,2.5,28.4,22.1,22.8,38,2.1-15.1,15.9-27.8,31.1-28.7,15.3-.9,30.4,10.2,34.2,25-2.1-16.8,13.2-33.6,30.1-33.1s31.2,18.2,28.1,34.8c-7.5-19.8,13.9-41.9,35-40.1s37.4,20.9,42.6,41.4c-2.3-18.5,14.5-37,33.1-36.4,18.6.5,34.3,20,31,38.3-2.3-19.1,13.6-38.6,32.8-40,19.2-1.4,37.9,15.4,38.5,34.7-2.2-18.1,14.9-36,33.1-34.6,18.2,1.4,32.3,21.8,27.3,39.3,1.1-16.5,15.5-31,32-32.2,16.5-1.2,32.9,11.2,36.3,27.3,1.2-16.8,16.8-31.4,33.7-31.3s32.4,14.8,33.4,31.6c-1.8-18.4,15-36.5,33.5-36s34.3,19.4,31.5,37.7c-.6-17.9,15.3-34.7,33.2-35s34.4,15.8,34.5,33.8c3.3-15.4,19-27.1,34.8-25.9,15.7,1.2,29.4,15.3,30.2,31,4.6-16.8,21.8-29.2,39.2-28.1,17.4,1.1,33,15.5,35.4,32.7,3-15.4,16.7-28,32.3-29.8,15.6-1.8,31.8,7.4,38.2,21.7,1-15.2,16.5-27.7,31.6-25.7s26.6,18.3,23.5,33.2c4.2-15.8,19.5-28,35.9-28.5,16.3-.5,32.4,10.7,37.5,26.2,4.1-15.2,19-26.7,34.7-26.8,15.7-.1,30.8,11.1,35.2,26.2,10.5-10.6,23.3-19.8,38.1-22s31.5,4.1,37.8,17.7-2.5,32.8-17.4,33.9c13.6,0,25.7,12.9,25.1,26.4-.6,13.6-13.9,25.2-27.4,24,15.1,1.1,28.4,14.1,29.9,29.1s-9,30.4-23.6,34.4c17.5,16.8,7.2,52-16.6,56.7,16.7-.5,32.4,13.8,33.5,30.5,1.1,16.7-12.8,32.9-29.4,34.5,10.6,3,18.2,14.3,17,25.2s-11,20.3-22,20.9c24.8,8.9,26.9,50.5,3.2,61.9,15.3-3.3,31.8,10.3,31.5,25.9s-17.3,28.6-32.5,24.7"/>
      <path class="cls-2" d="M1362.4,467.2c14.6-.2,28.1,12,28.7,25.9s-11.8,27.2-26.4,28.1c13.6,1,25.3,12.7,25.8,25.8.5,13-10.4,25.6-23.8,27.5,12.3,3.1,21.7,14.7,21.7,27s-9.6,23.8-22,26.7c12.2.9,22.5,12.2,21.9,23.9s-12.1,21.9-24.3,21.7c12.6-.4,24.7,8.9,27.1,20.8,2.3,11.9-5.5,24.8-17.4,28.8,15.4,4.2,23.1,24.3,14.3,37.1s-31.2,13.7-41.2,1.7c.5,12.4-12.1,23.7-25,22.6-12.9-1.1-23-14.5-20.2-26.6-.2,13.4-12.5,25.5-26.5,26.1-13.9.5-27.3-10.6-28.6-23.9-5.3,12.2-19.4,20.4-33.2,19.3s-26.2-11.4-29.4-24.3c1.1,13.2-9.7,26.2-23.3,28.2-13.6,2-28-7.3-31.1-20.2-4.5,12-17.8,20.5-31.1,19.8-13.3-.7-25.5-10.6-28.5-23.1-2.3,11.7-13.7,21.1-26.1,21.6s-24.6-8-27.9-19.5c-2,14-15.6,25.7-30.4,26-14.8.3-29-10.7-31.7-24.6-3.5,13.5-17.6,23.7-32.1,23.1s-27.8-11.7-30.2-25.4c-7.8,23.6-50.1,24.6-59.1,1.4-1.2,11.2-11.8,20.8-23.5,21.4s-23.2-8-25.6-19.1c-3.6,15-19.1,26.6-35.2,26.3-16.1-.3-31.1-12.5-34.1-27.6-12,22.7-51.9,23.8-65.2,1.8,0,12.6-10.8,24.3-23.9,25.7-13,1.4-26.4-7.7-29.2-20-3.3,14.9-18.5,26.5-34.4,26.3s-30.8-12.2-33.7-27.1c-.9,11.6-12.5,21.5-24.6,21s-22.8-11.3-22.7-22.9c-4.3,11.2-17.3,18.6-29.6,17s-22.7-12.2-23.6-24.1c.3,14.3-13.4,27.5-28.3,27.2s-28.1-13.9-27.3-28.2c-.7,9.6-9.6,18.1-19.7,18.6s-19.9-6.9-21.7-16.4c-2.3,13.4-16.3,24-30.5,23.2-14.2-.9-26.6-13.1-27.1-26.7,1,13.4-11.4,26.3-25.4,26.4-14,0-26.7-12.6-25.9-26-.2,13.6-13.4,25.7-27.5,25.4s-26.7-13.1-26.2-26.6c-.7,20.5-28.2,35.1-46.7,24.9-18.5-10.3-19-40.4-.8-51.2-10.5,8.4-29.3,3.3-33.6-9.2-4.4-12.4,7.4-27.3,21.1-26.7-15.7.2-29.8-14.7-28-29.7,1.7-15,18.8-26.6,34.1-23.1-11.6-.4-21.9-10.2-22.4-21.3s9-21.7,20.5-23c-13,2.7-27.1-8.2-27.2-21s13.9-23.8,27-21.2c-16.2,4.6-34.9-9.5-34.2-25.7.8-16.2,20.8-28.5,36.5-22.5-14.5-1.5-26.4-15.4-25-29.4s15.8-25.4,30.4-24.3c-14.5.9-28.7-10.5-30.3-24.4-1.6-13.9,9.7-28,24.1-30.1-14.2,3.5-30.1-8.4-30.1-22.5s16.1-25.8,30.2-22.3c-14.6.7-28.4-12-28.3-26s14.2-26.5,28.8-25.5c-14.7-.6-27.3-14.3-26-28.3s16.2-25.5,30.7-23.6c-15.8,1.1-31-12.7-30.7-27.9s16.1-28.4,31.9-26.7c-12.8-1.1-23.3-13.3-22.1-25.5s14-22.3,26.7-21l-.6.4c-19.7-10.2-23.2-40.5-6.2-54.5s47.7-6.3,55.4,13.9c-10.2-14.7-1.3-37.8,16.3-42.6,17.7-4.9,38,10.2,37.5,27.8,2.5-18.2,20-33.5,39.2-34.1s37.7,13.5,41.5,31.5c-.4-14.5,14.9-27.6,29.8-25.5s25.5,19,20.4,32.7c1.9-13,14.3-23.9,28-24.7,13.7-.7,27.3,8.7,30.7,21.5-1.8-14.5,11.9-29,27.1-28.5,15.2.4,28,15.7,25.2,30-6.7-17,12.5-36,31.4-34.5s33.6,18,38.3,35.6c-2.1-15.9,13-31.8,29.8-31.4,16.7.5,30.8,17.2,27.8,33-2.1-16.5,12.2-33.2,29.5-34.5,17.3-1.2,34,13.2,34.5,29.8-2-15.6,13.4-31,29.7-29.8s29,18.7,24.5,33.9c1-14.2,14-26.7,28.8-27.7s29.5,9.6,32.6,23.5c1.1-14.5,15.1-27,30.3-26.9s29.1,12.7,30,27.2c-1.6-15.9,13.4-31.4,30.1-31,16.6.4,30.8,16.7,28.3,32.4-.6-15.4,13.7-29.9,29.8-30.1,16.1-.3,30.9,13.6,31,29.1,3-13.3,17.1-23.4,31.2-22.3,14.1,1.1,26.4,13.2,27.2,26.7,4.1-14.5,19.6-25.1,35.2-24.2s29.6,13.4,31.8,28.2c2.7-13.2,15-24.1,29-25.7s28.5,6.4,34.3,18.7c.9-13.1,14.8-23.9,28.4-22.1s23.8,15.8,21.1,28.6c3.8-13.6,17.5-24.1,32.2-24.5s29.1,9.2,33.7,22.6c3.7-13,17.1-23,31.2-23.1s27.7,9.6,31.6,22.6c9.4-9.1,20.9-17,34.2-19s28.3,3.6,33.9,15.2-2.3,28.2-15.7,29.2c12.2.1,23.1,11.1,22.5,22.7-.6,11.7-12.5,21.7-24.6,20.6,13.5.9,25.5,12.1,26.8,25s-8.1,26.1-21.2,29.6c15.7,14.4,6.4,44.7-14.9,48.8,15-.4,29.1,11.9,30.1,26.3,1,14.3-11.5,28.3-26.4,29.7,9.5,2.6,16.3,12.3,15.2,21.7-1.1,9.4-9.9,17.5-19.8,18,22.2,7.7,24.1,43.5,2.8,53.3,13.7-2.8,28.5,8.9,28.3,22.3-.3,13.4-15.6,24.6-29.2,21.3"/>
    </g>
  </g>
</svg>